<svg width="92" height="92" viewBox="0 0 92 92" fill="none" xmlns="http://www.w3.org/2000/svg">
<rect width="92" height="92" fill="white"/>
<path d="M64.5594 46.3778C53.5708 39.1986 39.3725 39.2443 28.4353 46.492C27.9498 46.8118 27.6643 47.3601 27.6814 47.937L27.8527 55.2703C27.8756 56.2013 28.6466 56.938 29.5776 56.9152C29.7432 56.9152 29.9088 56.8809 30.0687 56.8295L37.4649 54.3794C38.1674 54.1452 38.6357 53.477 38.6186 52.7402L38.5615 50.3357C38.5558 49.9588 38.7956 49.6218 39.1612 49.5076C43.9473 48.0455 49.0589 48.0341 53.8507 49.4619C54.2162 49.5647 54.4561 49.9074 54.4561 50.2843L54.4161 52.6888C54.4047 53.4313 54.8787 54.0938 55.5812 54.3222L62.9888 56.721C63.8741 57.0066 64.8279 56.5211 65.1134 55.6358C65.1648 55.4759 65.1934 55.3103 65.1934 55.1447L65.3248 47.8113C65.3305 47.2345 65.0449 46.6862 64.5594 46.3721V46.3778Z" fill="#0CC0DF"/>
<path d="M73.2298 31.6309C54.7194 20.9165 36.7916 22.0073 19.7547 31.6424C19.2521 31.9279 18.9836 32.5048 19.0008 33.0873L19.1721 41.2374C19.195 42.1683 19.966 42.9051 20.8969 42.8822C21.0626 42.8822 21.2282 42.848 21.3881 42.7966L28.7843 40.3464C29.4868 40.1123 29.9551 39.444 29.938 38.7073L29.8809 36.3028C29.8751 35.9258 30.1264 35.6174 30.4805 35.4747C40.6067 31.3968 51.127 31.0884 62.5211 35.5375C62.8752 35.6745 63.1265 35.983 63.1265 36.3599L63.0865 38.7644C63.0751 39.5069 63.5491 40.1694 64.2516 40.3978L71.6592 42.7966C72.5445 43.0821 73.4983 42.5967 73.7838 41.7114C73.8352 41.5515 73.8638 41.3859 73.8638 41.2202L73.9952 33.0702C74.0009 32.4933 73.7324 31.9165 73.2298 31.6309Z" fill="#3FA3FF"/>
<path d="M46.5003 69C49.7713 69 52.4229 66.3483 52.4229 63.0773C52.4229 59.8064 49.7713 57.1547 46.5003 57.1547C43.2293 57.1547 40.5776 59.8064 40.5776 63.0773C40.5776 66.3483 43.2293 69 46.5003 69Z" fill="#8B3DFF"/>
</svg>
