<svg width="32" height="33" viewBox="0 0 32 33" fill="none" xmlns="http://www.w3.org/2000/svg">
<g clip-path="url(#clip0_21_2282)">
<path d="M5.33333 4.37598H8C8.35362 4.37598 8.69276 4.51645 8.94281 4.7665C9.19286 5.01655 9.33333 5.35569 9.33333 5.70931V8.37598C9.33333 8.7296 9.19286 9.06874 8.94281 9.31879C8.69276 9.56883 8.35362 9.70931 8 9.70931H5.33333C4.97971 9.70931 4.64057 9.56883 4.39052 9.31879C4.14048 9.06874 4 8.7296 4 8.37598V5.70931C4 5.35569 4.14048 5.01655 4.39052 4.7665C4.64057 4.51645 4.97971 4.37598 5.33333 4.37598Z" stroke="white" stroke-width="2" stroke-linecap="round" stroke-linejoin="round"/>
<path d="M23.9998 4.37598H26.6665C27.0201 4.37598 27.3593 4.51645 27.6093 4.7665C27.8594 5.01655 27.9998 5.35569 27.9998 5.70931V8.37598C27.9998 8.7296 27.8594 9.06874 27.6093 9.31879C27.3593 9.56883 27.0201 9.70931 26.6665 9.70931H23.9998C23.6462 9.70931 23.3071 9.56883 23.057 9.31879C22.807 9.06874 22.6665 8.7296 22.6665 8.37598V5.70931C22.6665 5.35569 22.807 5.01655 23.057 4.7665C23.3071 4.51645 23.6462 4.37598 23.9998 4.37598Z" stroke="white" stroke-width="2" stroke-linecap="round" stroke-linejoin="round"/>
<path d="M14.6668 4.37598H17.3335C17.6871 4.37598 18.0263 4.51645 18.2763 4.7665C18.5264 5.01655 18.6668 5.35569 18.6668 5.70931V8.37598C18.6668 8.7296 18.5264 9.06874 18.2763 9.31879C18.0263 9.56883 17.6871 9.70931 17.3335 9.70931H14.6668C14.3132 9.70931 13.9741 9.56883 13.724 9.31879C13.474 9.06874 13.3335 8.7296 13.3335 8.37598V5.70931C13.3335 5.35569 13.474 5.01655 13.724 4.7665C13.9741 4.51645 14.3132 4.37598 14.6668 4.37598Z" stroke="white" stroke-width="2" stroke-linecap="round" stroke-linejoin="round"/>
<path d="M5.33333 13.7095H8C8.35362 13.7095 8.69276 13.8499 8.94281 14.1C9.19286 14.35 9.33333 14.6892 9.33333 15.0428V17.7095C9.33333 18.0631 9.19286 18.4022 8.94281 18.6523C8.69276 18.9023 8.35362 19.0428 8 19.0428H5.33333C4.97971 19.0428 4.64057 18.9023 4.39052 18.6523C4.14048 18.4022 4 18.0631 4 17.7095V15.0428C4 14.6892 4.14048 14.35 4.39052 14.1C4.64057 13.8499 4.97971 13.7095 5.33333 13.7095Z" stroke="white" stroke-width="2" stroke-linecap="round" stroke-linejoin="round"/>
<path d="M23.9998 13.7095H26.6665C27.0201 13.7095 27.3593 13.8499 27.6093 14.1C27.8594 14.35 27.9998 14.6892 27.9998 15.0428V17.7095C27.9998 18.0631 27.8594 18.4022 27.6093 18.6523C27.3593 18.9023 27.0201 19.0428 26.6665 19.0428H23.9998C23.6462 19.0428 23.3071 18.9023 23.057 18.6523C22.807 18.4022 22.6665 18.0631 22.6665 17.7095V15.0428C22.6665 14.6892 22.807 14.35 23.057 14.1C23.3071 13.8499 23.6462 13.7095 23.9998 13.7095Z" stroke="white" stroke-width="2" stroke-linecap="round" stroke-linejoin="round"/>
<path d="M14.6668 13.7095H17.3335C17.6871 13.7095 18.0263 13.8499 18.2763 14.1C18.5264 14.35 18.6668 14.6892 18.6668 15.0428V17.7095C18.6668 18.0631 18.5264 18.4022 18.2763 18.6523C18.0263 18.9023 17.6871 19.0428 17.3335 19.0428H14.6668C14.3132 19.0428 13.9741 18.9023 13.724 18.6523C13.474 18.4022 13.3335 18.0631 13.3335 17.7095V15.0428C13.3335 14.6892 13.474 14.35 13.724 14.1C13.9741 13.8499 14.3132 13.7095 14.6668 13.7095Z" stroke="white" stroke-width="2" stroke-linecap="round" stroke-linejoin="round"/>
<path d="M14.6668 23.0425H17.3335C17.6871 23.0425 18.0263 23.183 18.2763 23.433C18.5264 23.6831 18.6668 24.0222 18.6668 24.3758V27.0425C18.6668 27.3961 18.5264 27.7352 18.2763 27.9853C18.0263 28.2353 17.6871 28.3758 17.3335 28.3758H14.6668C14.3132 28.3758 13.9741 28.2353 13.724 27.9853C13.474 27.7352 13.3335 27.3961 13.3335 27.0425V24.3758C13.3335 24.0222 13.474 23.6831 13.724 23.433C13.9741 23.183 14.3132 23.0425 14.6668 23.0425Z" stroke="white" stroke-width="2" stroke-linecap="round" stroke-linejoin="round"/>
</g>
<defs>
<clipPath id="clip0_21_2282">
<rect width="32" height="32" fill="white" transform="translate(0 0.375977)"/>
</clipPath>
</defs>
</svg>
