<svg width="32" height="33" viewBox="0 0 32 33" fill="none" xmlns="http://www.w3.org/2000/svg">
<g clip-path="url(#clip0_21_2264)">
<path d="M16 24.3761H6.66667C5.95942 24.3761 5.28115 24.0952 4.78105 23.5951C4.28095 23.095 4 22.4167 4 21.7095V8.37614C4 7.6689 4.28095 6.99062 4.78105 6.49052C5.28115 5.99042 5.95942 5.70947 6.66667 5.70947H25.3333C26.0406 5.70947 26.7189 5.99042 27.219 6.49052C27.719 6.99062 28 7.6689 28 8.37614V18.3761" stroke="white" stroke-width="2" stroke-linecap="round" stroke-linejoin="round"/>
<path d="M4 8.37598L16 16.376L28 8.37598" stroke="white" stroke-width="2" stroke-linecap="round" stroke-linejoin="round"/>
<path d="M20 24.376H28" stroke="white" stroke-width="2" stroke-linecap="round" stroke-linejoin="round"/>
<path d="M24 20.376L28 24.376L24 28.376" stroke="white" stroke-width="2" stroke-linecap="round" stroke-linejoin="round"/>
</g>
<defs>
<clipPath id="clip0_21_2264">
<rect width="32" height="32" fill="white" transform="translate(0 0.375977)"/>
</clipPath>
</defs>
</svg>
