<svg width="24" height="25" viewBox="0 0 24 25" fill="none" xmlns="http://www.w3.org/2000/svg">
<g clip-path="url(#clip0_21_2342)">
<path d="M22 7.91113V17.3761C22 18.1413 21.7077 18.8776 21.1827 19.4344C20.6578 19.9911 19.9399 20.3262 19.176 20.3711L19 20.3761H5C4.23479 20.3762 3.49849 20.0838 2.94174 19.5588C2.38499 19.0339 2.04989 18.316 2.005 17.5521L2 17.3761V7.91113L11.445 14.2081L11.561 14.2741C11.6977 14.3409 11.8478 14.3756 12 14.3756C12.1522 14.3756 12.3023 14.3409 12.439 14.2741L12.555 14.2081L22 7.91113Z" fill="#8B3DFF"/>
<path d="M19.0003 4.37598C20.0803 4.37598 21.0273 4.94598 21.5553 5.80298L12.0003 12.173L2.44531 5.80298C2.69604 5.39574 3.04053 5.05438 3.45002 4.80736C3.85951 4.56034 4.32214 4.41483 4.79931 4.38298L5.00031 4.37598H19.0003Z" fill="#8B3DFF"/>
</g>
<defs>
<clipPath id="clip0_21_2342">
<rect width="24" height="24" fill="white" transform="translate(0 0.375977)"/>
</clipPath>
</defs>
</svg>
