<svg width="24" height="25" viewBox="0 0 24 25" fill="none" xmlns="http://www.w3.org/2000/svg">
<g clip-path="url(#clip0_21_2337)">
<path d="M18.497 4.78659C20.3113 6.33498 21.5124 8.4809 21.8836 10.8371C22.2547 13.1933 21.7715 15.6045 20.521 17.6357C19.2705 19.6669 17.3352 21.1842 15.0643 21.9138C12.7934 22.6434 10.3365 22.5373 8.13696 21.6146L7.91396 21.5166L3.15495 22.3656L3.04496 22.3766C3.00832 22.3786 2.97159 22.3786 2.93495 22.3766L2.83295 22.3636L2.72495 22.3396L2.61995 22.3026L2.52095 22.2556L2.42795 22.1976L2.41395 22.1866L2.40195 22.1796L2.31595 22.1066L2.23896 22.0266L2.17195 21.9386L2.11595 21.8446L2.08195 21.7746L2.04195 21.6666L2.01395 21.5386L2.00196 21.4366C1.99935 21.395 1.99935 21.3532 2.00196 21.3116L2.01395 21.2116L2.03796 21.1016L2.08295 20.9796L3.51595 17.6756L3.50695 17.6616C2.30471 15.7207 1.80278 13.4269 2.08456 11.1613C2.36635 8.89575 3.4149 6.7948 5.05596 5.20759L5.27095 5.00459C7.07098 3.36406 9.40782 2.43681 11.8429 2.39685C14.2781 2.3569 16.6441 3.20599 18.497 4.78659ZM9.49996 7.87759C9.10213 7.87759 8.7206 8.03562 8.43929 8.31693C8.15799 8.59823 7.99996 8.97976 7.99996 9.37759V10.3776C7.99996 11.9689 8.6321 13.495 9.75731 14.6202C10.8825 15.7454 12.4087 16.3776 14 16.3776H15C15.3978 16.3776 15.7793 16.2196 16.0606 15.9382C16.3419 15.6569 16.5 15.2754 16.5 14.8776C16.5 14.4798 16.3419 14.0982 16.0606 13.8169C15.7793 13.5356 15.3978 13.3776 15 13.3776H14L13.856 13.3846C13.6271 13.4065 13.4063 13.4808 13.2108 13.6017C13.0152 13.7225 12.85 13.8867 12.728 14.0816L12.686 14.1556L12.664 14.1486C12.1027 13.949 11.593 13.627 11.1718 13.2058C10.7506 12.7846 10.4285 12.2748 10.229 11.7136L10.221 11.6906L10.296 11.6496C10.5115 11.5146 10.6892 11.3271 10.8124 11.1046C10.9355 10.8821 11.0001 10.6319 11 10.3776V9.37759C11 8.97976 10.8419 8.59823 10.5606 8.31693C10.2793 8.03562 9.89778 7.87759 9.49996 7.87759Z" fill="white"/>
</g>
<defs>
<clipPath id="clip0_21_2337">
<rect width="24" height="24" fill="white" transform="translate(0 0.375977)"/>
</clipPath>
</defs>
</svg>
