<svg width="56" height="56" viewBox="0 0 56 56" fill="none" xmlns="http://www.w3.org/2000/svg">
<g clip-path="url(#clip0_372_225)">
<path d="M33.8333 15.1666L40.8333 8.39996C41.7306 7.50264 42.9477 6.99854 44.2167 6.99854C45.4857 6.99854 46.7027 7.50264 47.6 8.39996C48.4973 9.29727 49.0014 10.5143 49.0014 11.7833C49.0014 13.0523 48.4973 14.2693 47.6 15.1666L40.8333 22.1666L46.6667 39.6666L40.8333 45.6166L32.6667 30.3333L25.6667 37.3333V44.3333L21 49L17.5 38.5L7 35L11.6667 30.3333H18.6667L25.6667 23.3333L10.5 15.1666L16.3333 9.33329L33.8333 15.1666Z" stroke="#00B9C0" stroke-width="2" stroke-linecap="round" stroke-linejoin="round"/>
</g>
<defs>
<clipPath id="clip0_372_225">
<rect width="56" height="56" fill="white"/>
</clipPath>
</defs>
</svg>
