<svg width="56" height="56" viewBox="0 0 56 56" fill="none" xmlns="http://www.w3.org/2000/svg">
<g clip-path="url(#clip0_372_248)">
<path d="M11.6667 30.3334C11.6667 29.0957 12.1584 27.9088 13.0336 27.0336C13.9088 26.1584 15.0957 25.6667 16.3334 25.6667H39.6667C40.9044 25.6667 42.0914 26.1584 42.9666 27.0336C43.8418 27.9088 44.3334 29.0957 44.3334 30.3334V44.3334C44.3334 45.5711 43.8418 46.7581 42.9666 47.6332C42.0914 48.5084 40.9044 49.0001 39.6667 49.0001H16.3334C15.0957 49.0001 13.9088 48.5084 13.0336 47.6332C12.1584 46.7581 11.6667 45.5711 11.6667 44.3334V30.3334Z" stroke="#822DFF" stroke-width="2" stroke-linecap="round" stroke-linejoin="round"/>
<path d="M25.6667 37.3333C25.6667 37.9522 25.9126 38.5457 26.3502 38.9833C26.7878 39.4208 27.3812 39.6667 28.0001 39.6667C28.6189 39.6667 29.2124 39.4208 29.65 38.9833C30.0876 38.5457 30.3334 37.9522 30.3334 37.3333C30.3334 36.7145 30.0876 36.121 29.65 35.6834C29.2124 35.2458 28.6189 35 28.0001 35C27.3812 35 26.7878 35.2458 26.3502 35.6834C25.9126 36.121 25.6667 36.7145 25.6667 37.3333Z" stroke="#822DFF" stroke-width="2" stroke-linecap="round" stroke-linejoin="round"/>
<path d="M18.6667 25.6667V16.3333C18.6667 13.858 19.6501 11.484 21.4004 9.73367C23.1508 7.98333 25.5247 7 28.0001 7C30.4754 7 32.8494 7.98333 34.5997 9.73367C36.3501 11.484 37.3334 13.858 37.3334 16.3333V25.6667" stroke="#822DFF" stroke-width="2" stroke-linecap="round" stroke-linejoin="round"/>
</g>
<defs>
<clipPath id="clip0_372_248">
<rect width="56" height="56" fill="white"/>
</clipPath>
</defs>
</svg>
