<svg width="56" height="56" viewBox="0 0 56 56" fill="none" xmlns="http://www.w3.org/2000/svg">
<g clip-path="url(#clip0_372_183)">
<path d="M11.668 42.0026C11.668 43.2403 12.1596 44.4273 13.0348 45.3024C13.91 46.1776 15.097 46.6693 16.3346 46.6693C17.5723 46.6693 18.7593 46.1776 19.6345 45.3024C20.5096 44.4273 21.0013 43.2403 21.0013 42.0026C21.0013 40.7649 20.5096 39.5779 19.6345 38.7028C18.7593 37.8276 17.5723 37.3359 16.3346 37.3359C15.097 37.3359 13.91 37.8276 13.0348 38.7028C12.1596 39.5779 11.668 40.7649 11.668 42.0026Z" stroke="#BE97F9" stroke-width="2" stroke-linecap="round" stroke-linejoin="round"/>
<path d="M11.668 14.0026C11.668 15.2403 12.1596 16.4273 13.0348 17.3024C13.91 18.1776 15.097 18.6693 16.3346 18.6693C17.5723 18.6693 18.7593 18.1776 19.6345 17.3024C20.5096 16.4273 21.0013 15.2403 21.0013 14.0026C21.0013 12.7649 20.5096 11.5779 19.6345 10.7028C18.7593 9.8276 17.5723 9.33594 16.3346 9.33594C15.097 9.33594 13.91 9.8276 13.0348 10.7028C12.1596 11.5779 11.668 12.7649 11.668 14.0026Z" stroke="#BE97F9" stroke-width="2" stroke-linecap="round" stroke-linejoin="round"/>
<path d="M35 14.0026C35 15.2403 35.4917 16.4273 36.3668 17.3024C37.242 18.1776 38.429 18.6693 39.6667 18.6693C40.9043 18.6693 42.0913 18.1776 42.9665 17.3024C43.8417 16.4273 44.3333 15.2403 44.3333 14.0026C44.3333 12.7649 43.8417 11.5779 42.9665 10.7028C42.0913 9.8276 40.9043 9.33594 39.6667 9.33594C38.429 9.33594 37.242 9.8276 36.3668 10.7028C35.4917 11.5779 35 12.7649 35 14.0026Z" stroke="#BE97F9" stroke-width="2" stroke-linecap="round" stroke-linejoin="round"/>
<path d="M16.332 18.6641V37.3307" stroke="#BE97F9" stroke-width="2" stroke-linecap="round" stroke-linejoin="round"/>
<path d="M21 41.9974H35C36.2377 41.9974 37.4247 41.5057 38.2998 40.6306C39.175 39.7554 39.6667 38.5684 39.6667 37.3307V25.6641" stroke="#BE97F9" stroke-width="2" stroke-linecap="round" stroke-linejoin="round"/>
<path d="M32.668 32.6641L39.668 25.6641L46.668 32.6641" stroke="#BE97F9" stroke-width="2" stroke-linecap="round" stroke-linejoin="round"/>
</g>
<defs>
<clipPath id="clip0_372_183">
<rect width="56" height="56" fill="white"/>
</clipPath>
</defs>
</svg>
