<svg width="56" height="56" viewBox="0 0 56 56" fill="none" xmlns="http://www.w3.org/2000/svg">
<g clip-path="url(#clip0_372_275)">
<path d="M23.3334 30.3334C23.3334 31.5711 23.825 32.7581 24.7002 33.6332C25.5754 34.5084 26.7624 35.0001 28 35.0001C29.2377 35.0001 30.4247 34.5084 31.2999 33.6332C32.175 32.7581 32.6667 31.5711 32.6667 30.3334C32.6667 29.0957 32.175 27.9088 31.2999 27.0336C30.4247 26.1584 29.2377 25.6667 28 25.6667C26.7624 25.6667 25.5754 26.1584 24.7002 27.0336C23.825 27.9088 23.3334 29.0957 23.3334 30.3334Z" stroke="#822DFF" stroke-width="2" stroke-linecap="round" stroke-linejoin="round"/>
<path d="M18.6666 49V46.6667C18.6666 45.429 19.1583 44.242 20.0335 43.3668C20.9086 42.4917 22.0956 42 23.3333 42H32.6666C33.9043 42 35.0913 42.4917 35.9665 43.3668C36.8416 44.242 37.3333 45.429 37.3333 46.6667V49" stroke="#822DFF" stroke-width="2" stroke-linecap="round" stroke-linejoin="round"/>
<path d="M35 11.6667C35 12.9043 35.4917 14.0913 36.3668 14.9665C37.242 15.8417 38.429 16.3333 39.6667 16.3333C40.9043 16.3333 42.0913 15.8417 42.9665 14.9665C43.8417 14.0913 44.3333 12.9043 44.3333 11.6667C44.3333 10.429 43.8417 9.242 42.9665 8.36683C42.0913 7.49167 40.9043 7 39.6667 7C38.429 7 37.242 7.49167 36.3668 8.36683C35.4917 9.242 35 10.429 35 11.6667Z" stroke="#822DFF" stroke-width="2" stroke-linecap="round" stroke-linejoin="round"/>
<path d="M39.6666 23.3333H44.3333C45.571 23.3333 46.758 23.8249 47.6331 24.7001C48.5083 25.5753 49 26.7622 49 27.9999V30.3333" stroke="#822DFF" stroke-width="2" stroke-linecap="round" stroke-linejoin="round"/>
<path d="M11.6666 11.6667C11.6666 12.9043 12.1583 14.0913 13.0335 14.9665C13.9086 15.8417 15.0956 16.3333 16.3333 16.3333C17.571 16.3333 18.758 15.8417 19.6331 14.9665C20.5083 14.0913 21 12.9043 21 11.6667C21 10.429 20.5083 9.242 19.6331 8.36683C18.758 7.49167 17.571 7 16.3333 7C15.0956 7 13.9086 7.49167 13.0335 8.36683C12.1583 9.242 11.6666 10.429 11.6666 11.6667Z" stroke="#822DFF" stroke-width="2" stroke-linecap="round" stroke-linejoin="round"/>
<path d="M7 30.3333V27.9999C7 26.7622 7.49167 25.5753 8.36683 24.7001C9.242 23.8249 10.429 23.3333 11.6667 23.3333H16.3333" stroke="#822DFF" stroke-width="2" stroke-linecap="round" stroke-linejoin="round"/>
</g>
<defs>
<clipPath id="clip0_372_275">
<rect width="56" height="56" fill="white"/>
</clipPath>
</defs>
</svg>
