<svg width="56" height="56" viewBox="0 0 56 56" fill="none" xmlns="http://www.w3.org/2000/svg">
<g clip-path="url(#clip0_372_337)">
<path d="M18.6666 11.6667H13.9999C12.7622 11.6667 11.5753 12.1584 10.7001 13.0336C9.82492 13.9088 9.33325 15.0957 9.33325 16.3334V44.3334C9.33325 45.5711 9.82492 46.7581 10.7001 47.6332C11.5753 48.5084 12.7622 49.0001 13.9999 49.0001H27.2929" stroke="#5170FF" stroke-width="2" stroke-linecap="round" stroke-linejoin="round"/>
<path d="M42 32.6667V42.0001H51.3333" stroke="#5170FF" stroke-width="2" stroke-linecap="round" stroke-linejoin="round"/>
<path d="M42.0001 25.6667V16.3334C42.0001 15.0957 41.5084 13.9088 40.6332 13.0336C39.7581 12.1584 38.5711 11.6667 37.3334 11.6667H32.6667" stroke="#5170FF" stroke-width="2" stroke-linecap="round" stroke-linejoin="round"/>
<path d="M18.6667 11.6667C18.6667 10.429 19.1584 9.242 20.0336 8.36683C20.9088 7.49167 22.0957 7 23.3334 7H28.0001C29.2378 7 30.4247 7.49167 31.2999 8.36683C32.1751 9.242 32.6667 10.429 32.6667 11.6667C32.6667 12.9043 32.1751 14.0913 31.2999 14.9665C30.4247 15.8417 29.2378 16.3333 28.0001 16.3333H23.3334C22.0957 16.3333 20.9088 15.8417 20.0336 14.9665C19.1584 14.0913 18.6667 12.9043 18.6667 11.6667Z" stroke="#5170FF" stroke-width="2" stroke-linecap="round" stroke-linejoin="round"/>
<path d="M32.6667 42.0001C32.6667 44.4754 33.6501 46.8494 35.4004 48.5997C37.1508 50.3501 39.5247 51.3334 42.0001 51.3334C44.4754 51.3334 46.8494 50.3501 48.5997 48.5997C50.3501 46.8494 51.3334 44.4754 51.3334 42.0001C51.3334 39.5247 50.3501 37.1508 48.5997 35.4004C46.8494 33.6501 44.4754 32.6667 42.0001 32.6667C39.5247 32.6667 37.1508 33.6501 35.4004 35.4004C33.6501 37.1508 32.6667 39.5247 32.6667 42.0001Z" stroke="#5170FF" stroke-width="2" stroke-linecap="round" stroke-linejoin="round"/>
<path d="M18.6667 25.6667H28.0001" stroke="#5170FF" stroke-width="2" stroke-linecap="round" stroke-linejoin="round"/>
<path d="M18.6667 35H25.6667" stroke="#5170FF" stroke-width="2" stroke-linecap="round" stroke-linejoin="round"/>
</g>
<defs>
<clipPath id="clip0_372_337">
<rect width="56" height="56" fill="white"/>
</clipPath>
</defs>
</svg>
