<svg width="56" height="56" viewBox="0 0 56 56" fill="none" xmlns="http://www.w3.org/2000/svg">
<g clip-path="url(#clip0_372_324)">
<path d="M23.3333 23.5783C23.3333 23.2397 23.3999 22.9045 23.5295 22.5916C23.6591 22.2788 23.849 21.9946 24.0884 21.7552C24.3278 21.5158 24.6121 21.3258 24.9249 21.1963C25.2377 21.0667 25.573 21 25.9116 21H30.0883C30.4268 21 30.7621 21.0667 31.0749 21.1963C31.3878 21.3258 31.672 21.5158 31.9114 21.7552C32.1508 21.9946 32.3407 22.2788 32.4703 22.5916C32.5999 22.9045 32.6666 23.2397 32.6666 23.5783V46.4217C32.6666 47.1055 32.3949 47.7613 31.9114 48.2448C31.4279 48.7284 30.7721 49 30.0883 49H25.9116C25.2278 49 24.572 48.7284 24.0884 48.2448C23.6049 47.7613 23.3333 47.1055 23.3333 46.4217V23.5783Z" stroke="#822DFF" stroke-width="2" stroke-linecap="round" stroke-linejoin="round"/>
<path d="M39.6667 9.57833C39.6667 8.89452 39.9384 8.23871 40.4219 7.75518C40.9055 7.27165 41.5613 7 42.2451 7H46.4217C47.1056 7 47.7614 7.27165 48.2449 7.75518C48.7284 8.23871 49.0001 8.89452 49.0001 9.57833V46.4217C49.0001 47.1055 48.7284 47.7613 48.2449 48.2448C47.7614 48.7284 47.1056 49 46.4217 49H42.2451C41.5613 49 40.9055 48.7284 40.4219 48.2448C39.9384 47.7613 39.6667 47.1055 39.6667 46.4217V9.57833Z" stroke="#822DFF" stroke-width="2" stroke-linecap="round" stroke-linejoin="round"/>
<path d="M7 44.3334C7 45.5711 7.49167 46.7581 8.36683 47.6332C9.242 48.5084 10.429 49.0001 11.6667 49.0001C12.9043 49.0001 14.0913 48.5084 14.9665 47.6332C15.8417 46.7581 16.3333 45.5711 16.3333 44.3334C16.3333 43.0957 15.8417 41.9088 14.9665 41.0336C14.0913 40.1584 12.9043 39.6667 11.6667 39.6667C10.429 39.6667 9.242 40.1584 8.36683 41.0336C7.49167 41.9088 7 43.0957 7 44.3334Z" stroke="#822DFF" stroke-width="2" stroke-linecap="round" stroke-linejoin="round"/>
</g>
<defs>
<clipPath id="clip0_372_324">
<rect width="56" height="56" fill="white"/>
</clipPath>
</defs>
</svg>
