<svg width="56" height="56" viewBox="0 0 56 56" fill="none" xmlns="http://www.w3.org/2000/svg">
<g clip-path="url(#clip0_372_353)">
<path d="M9.33325 13.9999C9.33325 15.2376 9.82492 16.4246 10.7001 17.2998C11.5753 18.1749 12.7622 18.6666 13.9999 18.6666C15.2376 18.6666 16.4246 18.1749 17.2998 17.2998C18.1749 16.4246 18.6666 15.2376 18.6666 13.9999C18.6666 12.7622 18.1749 11.5753 17.2998 10.7001C16.4246 9.82492 15.2376 9.33325 13.9999 9.33325C12.7622 9.33325 11.5753 9.82492 10.7001 10.7001C9.82492 11.5753 9.33325 12.7622 9.33325 13.9999Z" stroke="#00B9C0" stroke-width="2" stroke-linecap="round" stroke-linejoin="round"/>
<path d="M7 28H49" stroke="#00B9C0" stroke-width="2" stroke-linecap="round" stroke-linejoin="round"/>
<path d="M28 7V49" stroke="#00B9C0" stroke-width="2" stroke-linecap="round" stroke-linejoin="round"/>
<path d="M9.33325 37.3333L18.6666 46.6666" stroke="#00B9C0" stroke-width="2" stroke-linecap="round" stroke-linejoin="round"/>
<path d="M9.33325 46.6666L18.6666 37.3333" stroke="#00B9C0" stroke-width="2" stroke-linecap="round" stroke-linejoin="round"/>
<path d="M37.3333 9.33325L46.6666 18.6666" stroke="#00B9C0" stroke-width="2" stroke-linecap="round" stroke-linejoin="round"/>
<path d="M37.3333 18.6666L46.6666 9.33325" stroke="#00B9C0" stroke-width="2" stroke-linecap="round" stroke-linejoin="round"/>
<path d="M37.3333 41.9999C37.3333 43.2376 37.8249 44.4246 38.7001 45.2997C39.5753 46.1749 40.7622 46.6666 41.9999 46.6666C43.2376 46.6666 44.4246 46.1749 45.2997 45.2997C46.1749 44.4246 46.6666 43.2376 46.6666 41.9999C46.6666 40.7622 46.1749 39.5753 45.2997 38.7001C44.4246 37.8249 43.2376 37.3333 41.9999 37.3333C40.7622 37.3333 39.5753 37.8249 38.7001 38.7001C37.8249 39.5753 37.3333 40.7622 37.3333 41.9999Z" stroke="#00B9C0" stroke-width="2" stroke-linecap="round" stroke-linejoin="round"/>
</g>
<defs>
<clipPath id="clip0_372_353">
<rect width="56" height="56" fill="white"/>
</clipPath>
</defs>
</svg>
